<svg xmlns="http://www.w3.org/2000/svg" width="480" height="360" viewBox="0 0 480 360" role="img" aria-labelledby="title">
  <title id="title">?????????</title>
  <defs>
    <linearGradient id="bg-soft" x1="0%" y1="0%" x2="0%" y2="100%">
      <stop offset="0%" stop-color="#fafaf9"/>
      <stop offset="100%" stop-color="#f0efed" stop-opacity="0"/>
    </linearGradient>
  </defs>
  <rect width="480" height="360" fill="url(#bg-soft)"/>
  <ellipse cx="240" cy="318" rx="150" ry="16" fill="#e8e6e4" opacity="0.75"/>

  <!-- ?????? -->
  <rect x="48" y="52" width="384" height="200" rx="12" fill="#fff" stroke="#787574" stroke-width="2" opacity="0.95"/>
  <rect x="64" y="68" width="72" height="88" rx="4" fill="#f5f5f4" stroke="#c8c5c2" stroke-width="1.5"/>
  <line x1="76" y1="88" x2="124" y2="88" stroke="#e0dedc" stroke-width="3" stroke-linecap="round"/>
  <line x1="76" y1="100" x2="116" y2="100" stroke="#e0dedc" stroke-width="3" stroke-linecap="round"/>
  <line x1="76" y1="112" x2="120" y2="112" stroke="#e0dedc" stroke-width="3" stroke-linecap="round"/>
  <rect x="360" y="72" width="56" height="64" rx="3" fill="none" stroke="#c8c5c2" stroke-width="1.5"/>
  <text x="388" y="108" text-anchor="middle" font-family="sans-serif" font-size="11" fill="#787574">??</text>

  <!-- ????? -->
  <rect x="100" y="198" width="280" height="14" rx="4" fill="#d8d5d2"/>
  <rect x="108" y="168" width="264" height="32" rx="6" fill="#f5f5f4" stroke="#787574" stroke-width="2"/>

  <!-- ??????????????? -->
  <rect x="128" y="178" width="56" height="40" rx="2" fill="#fff" stroke="#787574" stroke-width="1.5" transform="rotate(-6 156 198)"/>
  <text x="148" y="196" text-anchor="middle" font-family="sans-serif" font-size="9" font-weight="600" fill="#787574" transform="rotate(-6 156 198)">???</text>
  <line x1="136" y1="204" x2="168" y2="204" stroke="#e0dedc" stroke-width="1.5" transform="rotate(-6 156 198)"/>
  <line x1="136" y1="210" x2="160" y2="210" stroke="#e0dedc" stroke-width="1.5" transform="rotate(-6 156 198)"/>

  <rect x="200" y="174" width="64" height="44" rx="4" fill="#fff" stroke="#787574" stroke-width="1.5"/>
  <rect x="208" y="182" width="48" height="10" rx="2" fill="#787574" opacity="0.2"/>
  <rect x="212" y="198" width="12" height="8" rx="1" fill="#c8c5c2"/>
  <rect x="228" y="198" width="12" height="8" rx="1" fill="#c8c5c2"/>
  <rect x="244" y="198" width="12" height="8" rx="1" fill="#c8c5c2"/>
  <rect x="212" y="210" width="12" height="8" rx="1" fill="#c8c5c2"/>
  <rect x="228" y="210" width="12" height="8" rx="1" fill="#c8c5c2"/>
  <rect x="244" y="210" width="12" height="8" rx="1" fill="#787574" opacity="0.35"/>

  <rect x="284" y="176" width="52" height="36" rx="3" fill="#fff" stroke="#787574" stroke-width="1.5"/>
  <text x="310" y="192" text-anchor="middle" font-family="sans-serif" font-size="8" fill="#787574">????</text>
  <line x1="292" y1="200" x2="328" y2="200" stroke="#e0dedc" stroke-width="1.5"/>
  <line x1="292" y1="206" x2="320" y2="206" stroke="#e0dedc" stroke-width="1.5"/>

  <!-- ?????? -->
  <circle cx="328" cy="118" r="30" fill="#f5f5f4" stroke="#787574" stroke-width="2"/>
  <path d="M302 108 Q328 92 354 108" fill="none" stroke="#3e3a39" stroke-width="2" stroke-linecap="round"/>
  <circle cx="318" cy="120" r="3" fill="#3e3a39"/>
  <circle cx="338" cy="120" r="3" fill="#3e3a39"/>
  <path d="M318 130 Q328 138 338 130" fill="none" stroke="#787574" stroke-width="1.5" stroke-linecap="round"/>
  <path d="M298 148 L358 148 L348 198 L308 198 Z" fill="#fff" stroke="#787574" stroke-width="2"/>
  <path d="M318 158 L338 158 L333 178 L323 178 Z" fill="#787574" opacity="0.25"/>
  <path d="M348 168 L378 148" stroke="#787574" stroke-width="2" stroke-linecap="round"/>
  <path d="M372 148 L378 142 M372 148 L378 154" stroke="#787574" stroke-width="1.5" stroke-linecap="round"/>

  <!-- ???????? -->
  <circle cx="152" cy="122" r="28" fill="#f5f5f4" stroke="#787574" stroke-width="2"/>
  <path d="M128 114 Q152 100 176 114" fill="none" stroke="#3e3a39" stroke-width="2" stroke-linecap="round"/>
  <circle cx="144" cy="124" r="2.5" fill="#3e3a39"/>
  <circle cx="160" cy="124" r="2.5" fill="#3e3a39"/>
  <path d="M142 134 Q152 140 162 134" fill="none" stroke="#787574" stroke-width="1.5" stroke-linecap="round"/>
  <path d="M124 150 L180 150 L172 200 L132 200 Z" fill="#fff" stroke="#787574" stroke-width="2"/>
  <path d="M108 178 L124 168" stroke="#787574" stroke-width="2" stroke-linecap="round"/>

  <!-- ????????? -->
  <ellipse cx="240" cy="88" rx="52" ry="32" fill="#fff" stroke="#787574" stroke-width="2"/>
  <text x="240" y="86" text-anchor="middle" font-family="sans-serif" font-size="13" font-weight="600" fill="#3e3a39">??????</text>
  <text x="240" y="102" text-anchor="middle" font-family="sans-serif" font-size="10" fill="#787574">???????</text>

  <path d="M188 108 Q214 96 228 112" fill="none" stroke="#787574" stroke-width="1.5" stroke-dasharray="5 4" stroke-linecap="round"/>
  <path d="M252 112 Q268 96 292 108" fill="none" stroke="#787574" stroke-width="1.5" stroke-dasharray="5 4" stroke-linecap="round"/>

  <!-- ???????? -->
  <circle cx="72" cy="248" r="16" fill="#f0efed" stroke="#c8c5c2" stroke-width="1.5"/>
  <text x="72" y="252" text-anchor="middle" font-family="sans-serif" font-size="14" font-weight="600" fill="#787574">?</text>
  <circle cx="408" cy="248" r="16" fill="#f0efed" stroke="#c8c5c2" stroke-width="1.5"/>
  <path d="M400 252 L408 244 L416 252" fill="none" stroke="#787574" stroke-width="1.5" stroke-linecap="round" stroke-linejoin="round"/>
  <line x1="408" y1="252" x2="408" y2="258" stroke="#787574" stroke-width="1.5" stroke-linecap="round"/>
</svg>
